# xmcd CD database file
#
# Track frame offsets:
#	150
#	76088
#	158601
#	195552
#	246888
#
# Disc length: 3517 seconds
#
# Revision: 1
# Processed by: cddbd v1.5.2PL0 Copyright (c) Steve Scherf et al.
# Submitted via: CDex 2.05
#
DISCID=2e0dbb05
DTITLE=Return To Forever - The Mothership Returns [CD2)
DYEAR=1900
DGENRE=Jazz
TTITLE0=After the Cosmic Rain
TTITLE1=The Romantic Warrior
TTITLE2=Concierto de Aranjuez-Spain
TTITLE3=School Days
TTITLE4=Beyond the Seventh Galaxy
EXTD=
EXTT0=
EXTT1=
EXTT2=
EXTT3=
EXTT4=
PLAYORDER=
